{
  "accessors": [
    {
      "bufferView": 2,
      "componentType": 5126,
      "count": 585,
      "max": [
        1.0,
        1.0,
        1.0
      ],
      "min": [
        -1.0,
        -1.0,
        -1.0
      ],
      "type": "VEC3"
    },
    {
      "bufferView": 2,
      "byteOffset": 7020,
      "componentType": 5126,
      "count": 585,
      "max": [
        1.0,
        1.0,
        1.0
      ],
      "min": [
        -1.0,
        -1.0,
        -1.0
      ],
      "type": "VEC3"
    },
    {
      "bufferView": 1,
      "componentType": 5126,
      "count": 585,
      "max": [
        0.875,
        1.0
      ],
      "min": [
        0.125,
        0.0
      ],
      "type": "VEC2"
    },
    {
      "bufferView": 0,
      "componentType": 5125,
      "count": 1548,
      "type": "SCALAR"
    },
    {
      "bufferView": 2,
      "byteOffset": 14040,
      "componentType": 5126,
      "count": 30,
      "max": [
        1.0,
        0.5429351925849915,
        0.5726064443588257
      ],
      "min": [
        1.0,
        -0.29156693816185,
        -0.5824003219604492
      ],
      "type": "VEC3"
    },
    {
      "bufferView": 2,
      "byteOffset": 14400,
      "componentType": 5126,
      "count": 30,
      "max": [
        1.0,
        0.0,
        -0.0
      ],
      "min": [
        1.0,
        0.0,
        -0.0
      ],
      "type": "VEC3"
    },
    {
      "bufferView": 1,
      "byteOffset": 4680,
      "componentType": 5126,
      "count": 30,
      "max": [
        0.5682921409606934,
        0.6358932256698608
      ],
      "min": [
        0.46374940872192383,
        0.5340472459793091
      ],
      "type": "VEC2"
    },
    {
      "bufferView": 0,
      "byteOffset": 6192,
      "componentType": 5125,
      "count": 72,
      "type": "SCALAR"
    },
    {
      "bufferView": 2,
      "byteOffset": 14760,
      "componentType": 5126,
      "count": 447,
      "max": [
        1.0,
        1.0,
        1.0
      ],
      "min": [
        -1.0,
        -1.0,
        -1.0
      ],
      "type": "VEC3"
    },
    {
      "bufferView": 2,
      "byteOffset": 20124,
      "componentType": 5126,
      "count": 447,
      "max": [
        1.0,
        1.0,
        1.0
      ],
      "min": [
        -1.0,
        -1.0,
        -1.0
      ],
      "type": "VEC3"
    },
    {
      "bufferView": 1,
      "byteOffset": 4920,
      "componentType": 5126,
      "count": 447,
      "max": [
        0.8646789193153381,
        0.9896789789199829
      ],
      "min": [
        0.13532111048698425,
        0.02098187245428562
      ],
      "type": "VEC2"
    },
    {
      "bufferView": 0,
      "byteOffset": 6480,
      "componentType": 5125,
      "count": 1464,
      "type": "SCALAR"
    }
  ],
  "asset": {
    "extras": {
      "author": "khalfanel (https://sketchfab.com/KhalfanEL)",
      "license": "CC-BY-4.0 (http://creativecommons.org/licenses/by/4.0/)",
      "source": "https://sketchfab.com/3d-models/geometry-dash-icon-4460378b36c24eee8457e33b07a10d9a",
      "title": "Geometry-dash-icon"
    },
    "generator": "Sketchfab-16.11.0",
    "version": "2.0"
  },
  "bufferViews": [
    {
      "buffer": 0,
      "byteLength": 12336,
      "name": "floatBufferViews",
      "target": 34963
    },
    {
      "buffer": 0,
      "byteLength": 8496,
      "byteOffset": 12336,
      "byteStride": 8,
      "name": "floatBufferViews",
      "target": 34962
    },
    {
      "buffer": 0,
      "byteLength": 25488,
      "byteOffset": 20832,
      "byteStride": 12,
      "name": "floatBufferViews",
      "target": 34962
    }
  ],
  "buffers": [
    {
      "byteLength": 46320,
      "uri": "scene.bin"
    }
  ],
  "materials": [
    {
      "doubleSided": true,
      "name": "Black",
      "pbrMetallicRoughness": {
        "baseColorFactor": [
          0.0,
          0.0,
          0.0,
          1.0
        ],
        "metallicFactor": 0.0,
        "roughnessFactor": 0.5
      }
    },
    {
      "doubleSided": true,
      "name": "Light_Blue",
      "pbrMetallicRoughness": {
        "baseColorFactor": [
          0.0202886,
          0.991102,
          0.991102,
          1.0
        ],
        "metallicFactor": 0.0,
        "roughnessFactor": 0.5
      }
    },
    {
      "doubleSided": true,
      "name": "Orange",
      "pbrMetallicRoughness": {
        "baseColorFactor": [
          0.991102,
          0.351533,
          0.0273209,
          1.0
        ],
        "metallicFactor": 0.0,
        "roughnessFactor": 0.5
      }
    }
  ],
  "meshes": [
    {
      "name": "Object_0",
      "primitives": [
        {
          "attributes": {
            "NORMAL": 1,
            "POSITION": 0,
            "TEXCOORD_0": 2
          },
          "indices": 3,
          "material": 0,
          "mode": 4
        }
      ]
    },
    {
      "name": "Object_1",
      "primitives": [
        {
          "attributes": {
            "NORMAL": 5,
            "POSITION": 4,
            "TEXCOORD_0": 6
          },
          "indices": 7,
          "material": 1,
          "mode": 4
        }
      ]
    },
    {
      "name": "Object_2",
      "primitives": [
        {
          "attributes": {
            "NORMAL": 9,
            "POSITION": 8,
            "TEXCOORD_0": 10
          },
          "indices": 11,
          "material": 2,
          "mode": 4
        }
      ]
    }
  ],
  "nodes": [
    {
      "children": [
        1
      ],
      "matrix": [
        1.0,
        0.0,
        0.0,
        0.0,
        0.0,
        2.220446049250313e-16,
        -1.0,
        0.0,
        0.0,
        1.0,
        2.220446049250313e-16,
        0.0,
        0.0,
        0.0,
        0.0,
        1.0
      ],
      "name": "Sketchfab_model"
    },
    {
      "children": [
        2
      ],
      "name": "root"
    },
    {
      "children": [
        3
      ],
      "matrix": [
        1.0,
        0.0,
        0.0,
        0.0,
        0.0,
        2.220446049250313e-16,
        1.0,
        0.0,
        0.0,
        -1.0,
        2.220446049250313e-16,
        0.0,
        0.0,
        0.0,
        0.0,
        1.0
      ],
      "name": "GLTF_SceneRootNode"
    },
    {
      "children": [
        4,
        5,
        6
      ],
      "matrix": [
        1.3676921129226685,
        0.0,
        0.0,
        0.0,
        0.0,
        1.3676921129226685,
        0.0,
        0.0,
        0.0,
        0.0,
        1.3676921129226685,
        0.0,
        0.0,
        0.013097906485199928,
        0.006658593192696571,
        1.0
      ],
      "name": "Geometry Dash Icon_0"
    },
    {
      "mesh": 0,
      "name": "Object_4"
    },
    {
      "mesh": 1,
      "name": "Object_5"
    },
    {
      "mesh": 2,
      "name": "Object_6"
    }
  ],
  "scene": 0,
  "scenes": [
    {
      "name": "Sketchfab_Scene",
      "nodes": [
        0
      ]
    }
  ]
}
